<svg xmlns="http://www.w3.org/2000/svg" version="1.1" id="Layer_1" viewBox="0 0 112.8 113.3" width="112.8" height="113.3"><metadata><rdf:RDF xmlns:rdf="http://www.w3.org/1999/02/22-rdf-syntax-ns#" xmlns:dc="http://purl.org/dc/elements/1.1/"><rdf:Description><dc:creator>RealFaviconGenerator</dc:creator><dc:source>https://realfavicongenerator.net</dc:source></rdf:Description></rdf:RDF></metadata><defs>
    <style>
      .st0 {
        fill: none;
        stroke: #162e28;
        stroke-miterlimit: 10;
        stroke-width: 3px;
      }

      .st1 {
        fill: #162e28;
        font-family: P22MorrisTroy, 'P22 Morris';
        font-size: 48px;
      }

      .st2 {
        fill: #c1d3c5;
      }
    </style>
  </defs><ellipse class="st2" cx="55.5" cy="55.9" rx="46.9" ry="48.4"></ellipse><g>
    <g>
      <text class="st1" transform="translate(27.9 56.2)"><tspan x="0" y="0">I </tspan></text>
      <text class="st1" transform="translate(41.9 88.3)"><tspan x="0" y="0">M</tspan></text>
    </g>
    <path class="st0" d="M29.5,106c5-3.3,12.7-5.4,6.9-7.9-5.8-2.5-8.4-3.2-.3,3.6-18.5-14.5-21.3-17.2-15.9-10.7-5.6-6.6-5.6-6.7-10.7-15.9,5,8.9,2.8,3.6-3.9-19.4,3.4,9.7,3.7,6.5,3.6,0,.9-8.5,10.5-31.2.4-19.4,11.1-14.2,14.9-18.7,4.6-8.5,10.9-11.2,12.2-12.4,6.1-7.4,6.5-5.5,6.8-5.7,7.4-6.1-.3.2,0,0,8.5-4.6-7.8,4.3-4.8,3.3,11.8-2-14.7,5.1-8,3.5,7.6-2-13,5.4,27.2,3.8,33.1,5.5,4.9,1.8-7.7,3-13.6-1.6,15.1,10.5,17.8,12.8,15.9,10.7,2.5,2.7,3.2,3.6,10.7,15.9-3.4-5.2-3.5-4.5-2.3-.4s3.9,11.6,6.2,19.8c-2.9-2.3-4.7,4.4-2.7,4.6-2.1,8.7-7.1,21.7-1.2,14.9-7.4,10.3-10.7,14.6-4.6,8.5-7.5,8.2-9.1,9.9-6.1,7.4-4.4,4-5.3,4.7-10.1,7.8,2.8-1.9-.5-.2-11.9,5,8.6-4.5,4.8-3-6.5,1.3,8.8-4-22.9-2-32.8.8"></path>
  </g></svg>